<svg xmlns="http://www.w3.org/2000/svg" xml:lang="en" height="265.84000000000003pt" width="369.05000000000007pt" viewBox="-346.6 -238.20000000000002 369.05000000000007 265.84000000000003"><polygon points="-8.999999999999996,-47.699999999999996 3.69231009942927e-15,-60.3 9.000000000000002,-47.699999999999996 " style="stroke:black;fill:none;stroke-width:2.0;stroke-dasharray:-;stroke-linecap:round;stroke-linejoin:round;" /><circle cx="-324.0" cy="-162.00000000000003" r="18.0" style="stroke:black;fill:none;stroke-width:2.0;stroke-dasharray:-;" /><path d="M 0.0,-0.0 L 0.0,14.4 L -9.0,14.4 L 9.0,14.4 M -6.3,18.72 L 6.3,18.72 M -1.8,23.04 L 1.8,23.04" style="stroke:black;fill:none;stroke-width:2.0;stroke-dasharray:-;stroke-linecap:round;stroke-linejoin:round;" /><path d="M 0.0,-0.0 L 2.9207826159664375e-15,-47.699999999999996 M -8.999999999999996,-60.3 L 9.000000000000004,-60.3 M 3.69231009942927e-15,-60.3 L 6.613092715395707e-15,-108.0" style="stroke:black;fill:none;stroke-width:2.0;stroke-dasharray:-;stroke-linecap:round;stroke-linejoin:round;" /><path d="M -13.499999999999996,-56.699999999999996 L -22.99864937670389,-62.1277996438308" style="stroke:black;fill:none;stroke-width:2.0;stroke-dasharray:-;stroke-linecap:round;stroke-linejoin:round;" /><path d="M -27.513513715751078 -64.70772212328633 L -21.569769234236208 -64.62833989314925 L -24.42752951917157 -59.62725939451236 Z" style="stroke:black;fill:black;stroke-linecap:butt;stroke-linejoin:miter;" /><path d="M -13.499999999999998,-48.599999999999994 L -22.99864937670389,-54.02779964383079" style="stroke:black;fill:none;stroke-width:2.0;stroke-dasharray:-;stroke-linecap:round;stroke-linejoin:round;" /><path d="M -27.513513715751078 -56.60772212328633 L -21.569769234236208 -56.52833989314924 L -24.427529519171575 -51.527259394512356 Z" style="stroke:black;fill:black;stroke-linecap:butt;stroke-linejoin:miter;" /><path d="M 6.613092715395707e-15,-108.0 L 8.817456953860943e-15,-144.0 L -8.999999999999991,-147.0 L 9.000000000000007,-153.0 L -8.99999999999999,-158.99999999999997 L 9.00000000000001,-165.0 L -8.99999999999999,-171.0 L 9.00000000000001,-176.99999999999997 L 1.1021821192326178e-14,-180.0 L 1.3226185430791413e-14,-216.0" style="stroke:black;fill:none;stroke-width:2.0;stroke-dasharray:-;stroke-linecap:round;stroke-linejoin:round;" /><path d="M 1.3226185430791413e-14,-216.0 L -162.0,-216.00000000000003 L -324.0,-216.00000000000003" style="stroke:black;fill:none;stroke-width:2.0;stroke-dasharray:-;stroke-linecap:round;stroke-linejoin:round;" /><path d="M -324.0,-216.00000000000003 L -324.0,-180.00000000000003 L -324.0,-180.00000000000003 M -324.0,-144.00000000000003 L -324.0,-144.00000000000003 L -324.0,-108.00000000000003" style="stroke:black;fill:none;stroke-width:2.0;stroke-dasharray:-;stroke-linecap:round;stroke-linejoin:round;" /><path d="M -327.59999999999997,-171.00000000000003 L -320.40000000000003,-171.00000000000003" style="stroke:black;fill:none;stroke-width:2.0;stroke-dasharray:-;stroke-linecap:round;stroke-linejoin:round;" /><path d="M -324.0,-156.60000000000005 L -324.0,-149.4" style="stroke:black;fill:none;stroke-width:2.0;stroke-dasharray:-;stroke-linecap:round;stroke-linejoin:round;" /><path d="M -327.59999999999997,-153.00000000000003 L -320.40000000000003,-153.00000000000003" style="stroke:black;fill:none;stroke-width:2.0;stroke-dasharray:-;stroke-linecap:round;stroke-linejoin:round;" /><path d="M -324.0,-108.00000000000003 L -162.0,-108.00000000000003 L 0.0,-108.00000000000003" style="stroke:black;fill:none;stroke-width:2.0;stroke-dasharray:-;stroke-linecap:round;stroke-linejoin:round;" /><text x="-13.004999999999995" y="-125.6" dominant-baseline="ideographic" fill="black" font-size="14.0" font-family="sans" text-anchor="middle"><tspan x="-13.004999999999995" dy="14.0">Red LED</tspan></text><text x="1.3446621854637937e-14" y="-233.6" dominant-baseline="ideographic" fill="black" font-size="14.0" font-family="sans" text-anchor="middle"><tspan x="1.3446621854637937e-14" dy="14.0">150Ω</tspan></text><text x="-324.0" y="-118.40000000000003" dominant-baseline="hanging" fill="black" font-size="14.0" font-family="sans" text-anchor="middle"><tspan x="-324.0" dy="14.0">+5V</tspan></text></svg>