<svg xmlns="http://www.w3.org/2000/svg" xml:lang="en" height="333.2pt" width="303.40399999999994pt" viewBox="-51.56799999999999 -112.60000000000004 303.40399999999994 333.2"><circle cx="3.3065463576978533e-15" cy="-54.0" r="18.0" style="stroke:black;fill:none;stroke-width:2.0;stroke-dasharray:-;" /><polygon points="224.99999999999997,47.699999999999996 215.99999999999997,60.3 206.99999999999997,47.699999999999996 " style="stroke:black;fill:none;stroke-width:2.0;stroke-dasharray:-;stroke-linecap:round;stroke-linejoin:round;" /><path d="M 0.0,-0.0 L 2.204364238465236e-15,-36.0 L 2.204364238465236e-15,-36.0 M 4.408728476930472e-15,-72.0 L 4.408728476930472e-15,-72.0 L 6.613092715395707e-15,-108.0" style="stroke:black;fill:none;stroke-width:2.0;stroke-dasharray:-;stroke-linecap:round;stroke-linejoin:round;" /><path d="M 3.600000000000003,-45.0 L -3.599999999999997,-45.0" style="stroke:black;fill:none;stroke-width:2.0;stroke-dasharray:-;stroke-linecap:round;stroke-linejoin:round;" /><path d="M 3.637200993467639e-15,-59.4 L 4.078073841160686e-15,-66.60000000000001" style="stroke:black;fill:none;stroke-width:2.0;stroke-dasharray:-;stroke-linecap:round;stroke-linejoin:round;" /><path d="M 3.600000000000004,-63.0 L -3.599999999999996,-63.0" style="stroke:black;fill:none;stroke-width:2.0;stroke-dasharray:-;stroke-linecap:round;stroke-linejoin:round;" /><path d="M 6.613092715395707e-15,-108.0 L 108.0,-108.0 L 216.0,-108.0" style="stroke:black;fill:none;stroke-width:2.0;stroke-dasharray:-;stroke-linecap:round;stroke-linejoin:round;" /><path d="M 216.0,-108.0 L 216.0,-72.0 L 225.0,-69.0 L 207.0,-63.0 L 225.0,-57.00000000000001 L 207.0,-51.0 L 225.0,-45.0 L 207.0,-39.00000000000001 L 216.0,-36.0 L 215.99999999999997,-0.0" style="stroke:black;fill:none;stroke-width:2.0;stroke-dasharray:-;stroke-linecap:round;stroke-linejoin:round;" /><path d="M 215.99999999999997,-0.0 L 215.99999999999997,47.699999999999996 M 224.99999999999997,60.3 L 206.99999999999997,60.3 M 215.99999999999997,60.3 L 215.99999999999994,108.0" style="stroke:black;fill:none;stroke-width:2.0;stroke-dasharray:-;stroke-linecap:round;stroke-linejoin:round;" /><path d="M 229.49999999999997,56.699999999999996 L 238.99864937670387,62.127799643830805" style="stroke:black;fill:none;stroke-width:2.0;stroke-dasharray:-;stroke-linecap:round;stroke-linejoin:round;" /><path d="M 243.51351371575106 64.70772212328633 L 237.5697692342362 64.62833989314925 L 240.42752951917154 59.62725939451236 Z" style="stroke:black;fill:black;stroke-linecap:butt;stroke-linejoin:miter;" /><path d="M 229.49999999999997,48.599999999999994 L 238.99864937670387,54.027799643830804" style="stroke:black;fill:none;stroke-width:2.0;stroke-dasharray:-;stroke-linecap:round;stroke-linejoin:round;" /><path d="M 243.51351371575106 56.60772212328634 L 237.5697692342362 56.528339893149244 L 240.42752951917154 51.52725939451236 Z" style="stroke:black;fill:black;stroke-linecap:butt;stroke-linejoin:miter;" /><path d="M 215.99999999999994,108.0 L 215.99999999999994,122.39999999999999 L 206.99999999999994,122.39999999999999 L 224.99999999999994,122.39999999999999 M 209.69999999999993,126.72 L 222.29999999999993,126.72 M 214.19999999999993,131.04 L 217.79999999999993,131.04" style="stroke:black;fill:none;stroke-width:2.0;stroke-dasharray:-;stroke-linecap:round;stroke-linejoin:round;" /><path d="M 216.0,-108.0 L 108.0,-108.00000000000001 L 0.0,-108.00000000000003" style="stroke:black;fill:none;stroke-width:2.0;stroke-dasharray:-;stroke-linecap:round;stroke-linejoin:round;" /><path d="M 0.0,-108.00000000000003 L -2.975891721928068e-14,53.99999999999997 L -5.951783443856136e-14,215.99999999999997" style="stroke:black;fill:none;stroke-width:2.0;stroke-dasharray:-;stroke-linecap:round;stroke-linejoin:round;" /><text x="-21.599999999999994" y="-68.0" dominant-baseline="central" fill="black" font-size="14.0" font-family="sans" text-anchor="end"><tspan x="-21.599999999999994" dy="14.0">+5V</tspan></text><text x="219.6" y="-64.4" dominant-baseline="central" fill="black" font-size="14.0" font-family="sans" text-anchor="middle"><tspan x="219.6" dy="14.0">150Ω</tspan></text><text x="219.59999999999997" y="43.599999999999994" dominant-baseline="central" fill="black" font-size="14.0" font-family="sans" text-anchor="middle"><tspan x="219.59999999999997" dy="14.0">Red LED</tspan></text></svg>